<svg xmlns="http://www.w3.org/2000/svg" width="2261" height="709.955" viewBox="0 0 2261 709.955">
  <g id="Group_5" data-name="Group 5" transform="translate(796 -49.045)">
    <g id="svg2" transform="translate(2268 1402)">
      <g id="Ellipse_7" data-name="Ellipse 7" transform="translate(-894 -732)" fill="#fff" stroke="#ff8649" stroke-width="5">
        <ellipse cx="45.5" cy="44.5" rx="45.5" ry="44.5" stroke="none"/>
        <ellipse cx="45.5" cy="44.5" rx="43" ry="42" fill="none"/>
      </g>
      <g id="Ellipse_8" data-name="Ellipse 8" transform="translate(-879 -714)" fill="none" stroke="#ff8649" stroke-width="5">
        <ellipse cx="30.5" cy="27" rx="30.5" ry="27" stroke="none"/>
        <ellipse cx="30.5" cy="27" rx="28" ry="24.5" fill="none"/>
      </g>
    </g>
    <g id="svg3" transform="translate(1042 1121.419)">
      <ellipse id="Ellipse_7-2" data-name="Ellipse 7" cx="33" cy="32" rx="33" ry="32" transform="translate(-796 -483.419)" fill="#ff8649"/>
    </g>
    <g id="svg3-2" data-name="svg3" transform="translate(1679 832.419)">
      <ellipse id="Ellipse_7-3" data-name="Ellipse 7" cx="45" cy="42.5" rx="45" ry="42.5" transform="translate(-796 -483.419)" fill="#ff8649"/>
    </g>
    <g id="svg3-3" data-name="svg3" transform="translate(0 896.419)">
      <ellipse id="Ellipse_7-4" data-name="Ellipse 7" cx="70.5" cy="67.5" rx="70.5" ry="67.5" transform="translate(-796 -483.419)" fill="rgba(255,199,99,0.94)"/>
    </g>
    <g id="svg3-4" data-name="svg3" transform="translate(502 986.419)">
      <ellipse id="Ellipse_7-5" data-name="Ellipse 7" cx="15.5" cy="15" rx="15.5" ry="15" transform="translate(-800 -486.419)" fill="rgba(255,199,99,0.94)"/>
    </g>
    <g id="svg3-5" data-name="svg3" transform="translate(568 1020.419)">
      <circle id="Ellipse_7-6" data-name="Ellipse 7" cx="8.5" cy="8.5" r="8.5" transform="translate(-796 -483.419)" fill="rgba(255,199,99,0.94)"/>
    </g>
    <g id="svg3-6" data-name="svg3" transform="translate(533 1005.419)">
      <circle id="Ellipse_7-7" data-name="Ellipse 7" cx="10.5" cy="10.5" r="10.5" transform="translate(-796 -483.419)" fill="rgba(255,199,99,0.94)"/>
    </g>
    <g id="svg5" transform="matrix(0.719, -0.695, 0.695, 0.719, 220.772, -185.257)">
      <rect id="Rectangle_1" data-name="Rectangle 1" width="168" height="8.042" transform="translate(-697 -156)" fill="#ff5f25"/>
    </g>
    <g id="svg5-2" data-name="svg5" transform="matrix(0.719, -0.695, 0.695, 0.719, 220.772, -62.77)">
      <rect id="Rectangle_1-2" data-name="Rectangle 1" width="96.655" height="8.042" transform="translate(-697 -156)" fill="#ff5f25"/>
    </g>
    <g id="svg6" transform="translate(1068.704 784.684) rotate(42)">
      <g id="Rectangle_2" data-name="Rectangle 2" transform="translate(-782.87 -285)" fill="#fff" stroke="#ffcd25" stroke-width="13">
        <rect width="16.82" height="124" stroke="none"/>
        <rect x="6.5" y="6.5" width="3.82" height="111" fill="none"/>
      </g>
    </g>
  </g>
</svg>
