<svg xmlns="http://www.w3.org/2000/svg" width="2307" height="934" viewBox="0 0 2307 934">
  <g id="Group_4" data-name="Group 4" transform="translate(796 128)">
    <g id="svg2" transform="translate(2268 1402)">
      <g id="Ellipse_7" data-name="Ellipse 7" transform="translate(-894 -732)" fill="#fff" stroke="#ff8649" stroke-width="5">
        <ellipse cx="68.5" cy="68" rx="68.5" ry="68" stroke="none"/>
        <ellipse cx="68.5" cy="68" rx="66" ry="65.5" fill="none"/>
      </g>
      <g id="Ellipse_8" data-name="Ellipse 8" transform="translate(-856 -691)" fill="#ff8649" stroke="#ff8649" stroke-width="5">
        <ellipse cx="30.5" cy="27" rx="30.5" ry="27" stroke="none"/>
        <ellipse cx="30.5" cy="27" rx="28" ry="24.5" fill="none"/>
      </g>
    </g>
    <g id="svg2-2" data-name="svg2" transform="translate(1173 697)">
      <g id="Ellipse_7-2" data-name="Ellipse 7" transform="translate(-894 -732)" fill="#fff" stroke="#ff8649" stroke-width="5">
        <ellipse cx="54" cy="52.5" rx="54" ry="52.5" stroke="none"/>
        <ellipse cx="54" cy="52.5" rx="51.5" ry="50" fill="none"/>
      </g>
      <g id="Ellipse_8-2" data-name="Ellipse 8" transform="translate(-861 -702)" fill="#ff8649" stroke="#ff8649" stroke-width="5">
        <circle cx="22" cy="22" r="22" stroke="none"/>
        <circle cx="22" cy="22" r="19.5" fill="none"/>
      </g>
    </g>
    <g id="svg1" transform="translate(344 355)">
      <g id="Ellipse_7-3" data-name="Ellipse 7" transform="translate(-796 -483)" fill="#fdfdfd" stroke="#ffce49" stroke-width="10">
        <ellipse cx="68" cy="67.5" rx="68" ry="67.5" stroke="none"/>
        <ellipse cx="68" cy="67.5" rx="63" ry="62.5" fill="none"/>
      </g>
      <g id="Ellipse_8-3" data-name="Ellipse 8" transform="translate(-767 -451)" fill="#fdfdfd" stroke="#ffce49" stroke-width="8">
        <ellipse cx="39" cy="37" rx="39" ry="37" stroke="none"/>
        <ellipse cx="39" cy="37" rx="35" ry="33" fill="none"/>
      </g>
    </g>
    <g id="svg3" transform="translate(1042 1121.419)">
      <ellipse id="Ellipse_7-4" data-name="Ellipse 7" cx="33" cy="32" rx="33" ry="32" transform="translate(-796 -483.419)" fill="#ff8649"/>
    </g>
    <g id="svg3-2" data-name="svg3" transform="translate(0 896.419)">
      <ellipse id="Ellipse_7-5" data-name="Ellipse 7" cx="70.5" cy="67.5" rx="70.5" ry="67.5" transform="translate(-796 -483.419)" fill="rgba(255,199,99,0.94)"/>
    </g>
    <g id="svg5" transform="matrix(0.719, -0.695, 0.695, 0.719, 1153.772, 225.698)">
      <rect id="Rectangle_1" data-name="Rectangle 1" width="168" height="8.042" transform="translate(-697 -156)" fill="#ff5f25"/>
    </g>
    <g id="svg6" transform="translate(1068.704 784.684) rotate(42)">
      <g id="Rectangle_2" data-name="Rectangle 2" transform="translate(-782.87 -285)" fill="#fff" stroke="#ffcd25" stroke-width="13">
        <rect width="16.82" height="124" stroke="none"/>
        <rect x="6.5" y="6.5" width="3.82" height="111" fill="none"/>
      </g>
    </g>
  </g>
</svg>
