<svg xmlns="http://www.w3.org/2000/svg" width="2655" height="1476" viewBox="0 0 2655 1476">
  <g id="Group_2" data-name="Group 2" transform="translate(976 347)">
    <g id="svg2" transform="translate(1465 136)">
      <g id="Ellipse_7" data-name="Ellipse 7" transform="translate(-796 -483)" fill="#fff" stroke="#ff8649" stroke-width="5">
        <ellipse cx="68.5" cy="68" rx="68.5" ry="68" stroke="none"/>
        <ellipse cx="68.5" cy="68" rx="66" ry="65.5" fill="none"/>
      </g>
      <g id="Ellipse_8" data-name="Ellipse 8" transform="translate(-758 -442)" fill="#ff8649" stroke="#ff8649" stroke-width="5">
        <ellipse cx="30.5" cy="27" rx="30.5" ry="27" stroke="none"/>
        <ellipse cx="30.5" cy="27" rx="28" ry="24.5" fill="none"/>
      </g>
    </g>
    <g id="svg1" transform="translate(344 355)">
      <g id="Ellipse_7-2" data-name="Ellipse 7" transform="translate(-796 -483)" fill="#fdfdfd" stroke="#ffce49" stroke-width="10">
        <ellipse cx="68" cy="67.5" rx="68" ry="67.5" stroke="none"/>
        <ellipse cx="68" cy="67.5" rx="63" ry="62.5" fill="none"/>
      </g>
      <g id="Ellipse_8-2" data-name="Ellipse 8" transform="translate(-767 -451)" fill="#fdfdfd" stroke="#ffce49" stroke-width="19">
        <ellipse cx="39" cy="37" rx="39" ry="37" stroke="none"/>
        <ellipse cx="39" cy="37" rx="29.5" ry="27.5" fill="none"/>
      </g>
    </g>
    <g id="svg3" transform="translate(-180 1446)">
      <ellipse id="Ellipse_7-3" data-name="Ellipse 7" cx="82.5" cy="83" rx="82.5" ry="83" transform="translate(-796 -483)" fill="#ff8649"/>
    </g>
    <g id="svg3-2" data-name="svg3" transform="translate(460 272)">
      <ellipse id="Ellipse_7-4" data-name="Ellipse 7" cx="349.5" cy="347.5" rx="349.5" ry="347.5" transform="translate(-796 -483)" fill="rgba(255,134,73,0.31)"/>
    </g>
    <g id="svg3-3" data-name="svg3" transform="translate(917 1292.419)">
      <ellipse id="Ellipse_7-5" data-name="Ellipse 7" cx="33" cy="32" rx="33" ry="32" transform="translate(-796 -483.419)" fill="#ff8649"/>
    </g>
    <g id="svg4" transform="translate(1280 1007)">
      <ellipse id="Ellipse_7-6" data-name="Ellipse 7" cx="58" cy="58.5" rx="58" ry="58.5" transform="translate(-796 -483)" fill="#ff4949"/>
    </g>
    <g id="svg5" transform="translate(1936 -55)">
      <g id="Rectangle_1" data-name="Rectangle 1" transform="translate(-697 -156)" fill="#fff" stroke="#ff5f25" stroke-width="23">
        <rect width="180" height="180" stroke="none"/>
        <rect x="11.5" y="11.5" width="157" height="157" fill="none"/>
      </g>
    </g>
    <g id="svg6" transform="translate(2362 1048)">
      <g id="Rectangle_2" data-name="Rectangle 2" transform="translate(-783 -285)" fill="#fff" stroke="#ffcd25" stroke-width="23">
        <rect width="100" height="100" stroke="none"/>
        <rect x="11.5" y="11.5" width="77" height="77" fill="none"/>
      </g>
    </g>
  </g>
</svg>
